<svg data-v-423bf9ae="" xmlns="http://www.w3.org/2000/svg" viewBox="0 0 370.419856007925 163" class="iconAbove"><!----><!----><!----><g data-v-423bf9ae="" id="fcdec21f-a012-4d82-abc3-0c354c35400a" fill="black" transform="matrix(5.725190568780254,0,0,5.725190568780254,0.05724501713038421,84.90839611916445)"><path d="M8.79 13.55L7.71 11.10L2.51 11.10L1.43 13.55L-0.01 13.55L4.42 3.75L5.81 3.75L10.26 13.55L8.79 13.55ZM3.00 9.98L7.22 9.98L5.11 5.18L3.00 9.98ZM17.18 3.16L18.52 3.16L18.52 13.55L17.23 13.55L17.23 12.38L17.23 12.38Q16.79 12.99 16.10 13.31L16.10 13.31L16.10 13.31Q15.41 13.64 14.59 13.64L14.59 13.64L14.59 13.64Q13.51 13.64 12.66 13.16L12.66 13.16L12.66 13.16Q11.80 12.68 11.32 11.82L11.32 11.82L11.32 11.82Q10.84 10.96 10.84 9.84L10.84 9.84L10.84 9.84Q10.84 8.72 11.32 7.87L11.32 7.87L11.32 7.87Q11.80 7.01 12.66 6.54L12.66 6.54L12.66 6.54Q13.51 6.06 14.59 6.06L14.59 6.06L14.59 6.06Q15.39 6.06 16.06 6.36L16.06 6.36L16.06 6.36Q16.73 6.66 17.18 7.25L17.18 7.25L17.18 3.16ZM14.70 12.46L14.70 12.46Q15.40 12.46 15.97 12.13L15.97 12.13L15.97 12.13Q16.55 11.80 16.87 11.21L16.87 11.21L16.87 11.21Q17.19 10.61 17.19 9.84L17.19 9.84L17.19 9.84Q17.19 9.07 16.87 8.48L16.87 8.48L16.87 8.48Q16.55 7.88 15.97 7.56L15.97 7.56L15.97 7.56Q15.40 7.24 14.70 7.24L14.70 7.24L14.70 7.24Q13.99 7.24 13.42 7.56L13.42 7.56L13.42 7.56Q12.85 7.88 12.52 8.48L12.52 8.48L12.52 8.48Q12.19 9.07 12.19 9.84L12.19 9.84L12.19 9.84Q12.19 10.61 12.52 11.21L12.52 11.21L12.52 11.21Q12.85 11.80 13.42 12.13L13.42 12.13L13.42 12.13Q13.99 12.46 14.70 12.46L14.70 12.46ZM31.63 8.47L31.63 8.47Q32.48 8.71 32.97 9.33L32.97 9.33L32.97 9.33Q33.46 9.95 33.46 10.91L33.46 10.91L33.46 10.91Q33.46 12.18 32.50 12.87L32.50 12.87L32.50 12.87Q31.54 13.55 29.71 13.55L29.71 13.55L25.03 13.55L25.03 3.75L29.43 3.75L29.43 3.75Q31.11 3.75 32.02 4.42L32.02 4.42L32.02 4.42Q32.94 5.10 32.94 6.29L32.94 6.29L32.94 6.29Q32.94 7.06 32.58 7.62L32.58 7.62L32.58 7.62Q32.23 8.18 31.63 8.47L31.63 8.47ZM29.30 4.89L26.43 4.89L26.43 8.02L29.30 8.02L29.30 8.02Q30.38 8.02 30.96 7.62L30.96 7.62L30.96 7.62Q31.54 7.22 31.54 6.45L31.54 6.45L31.54 6.45Q31.54 5.68 30.96 5.29L30.96 5.29L30.96 5.29Q30.38 4.89 29.30 4.89L29.30 4.89ZM29.65 12.42L29.65 12.42Q30.84 12.42 31.44 12.03L31.44 12.03L31.44 12.03Q32.05 11.63 32.05 10.79L32.05 10.79L32.05 10.79Q32.05 9.16 29.65 9.16L29.65 9.16L26.43 9.16L26.43 12.42L29.65 12.42ZM42.14 9.88L42.14 9.88Q42.14 10.04 42.11 10.29L42.11 10.29L36.09 10.29L36.09 10.29Q36.22 11.27 36.95 11.87L36.95 11.87L36.95 11.87Q37.69 12.46 38.78 12.46L38.78 12.46L38.78 12.46Q40.11 12.46 40.92 11.56L40.92 11.56L41.66 12.43L41.66 12.43Q41.16 13.02 40.41 13.33L40.41 13.33L40.41 13.33Q39.66 13.64 38.74 13.64L38.74 13.64L38.74 13.64Q37.56 13.64 36.65 13.15L36.65 13.15L36.65 13.15Q35.74 12.67 35.24 11.80L35.24 11.80L35.24 11.80Q34.75 10.93 34.75 9.84L34.75 9.84L34.75 9.84Q34.75 8.76 35.23 7.90L35.23 7.90L35.23 7.90Q35.71 7.03 36.56 6.54L36.56 6.54L36.56 6.54Q37.41 6.06 38.47 6.06L38.47 6.06L38.47 6.06Q39.54 6.06 40.37 6.54L40.37 6.54L40.37 6.54Q41.20 7.03 41.67 7.90L41.67 7.90L41.67 7.90Q42.14 8.76 42.14 9.88L42.14 9.88ZM38.47 7.20L38.47 7.20Q37.51 7.20 36.85 7.78L36.85 7.78L36.85 7.78Q36.20 8.37 36.09 9.32L36.09 9.32L40.85 9.32L40.85 9.32Q40.74 8.39 40.09 7.79L40.09 7.79L40.09 7.79Q39.44 7.20 38.47 7.20L38.47 7.20ZM46.70 6.06L46.70 6.06Q48.24 6.06 49.06 6.82L49.06 6.82L49.06 6.82Q49.88 7.57 49.88 9.07L49.88 9.07L49.88 13.55L48.61 13.55L48.61 12.57L48.61 12.57Q48.27 13.09 47.65 13.36L47.65 13.36L47.65 13.36Q47.03 13.64 46.17 13.64L46.17 13.64L46.17 13.64Q44.93 13.64 44.18 13.03L44.18 13.03L44.18 13.03Q43.43 12.43 43.43 11.45L43.43 11.45L43.43 11.45Q43.43 10.47 44.14 9.88L44.14 9.88L44.14 9.88Q44.86 9.28 46.41 9.28L46.41 9.28L48.54 9.28L48.54 9.02L48.54 9.02Q48.54 8.15 48.03 7.69L48.03 7.69L48.03 7.69Q47.53 7.22 46.55 7.22L46.55 7.22L46.55 7.22Q45.89 7.22 45.26 7.44L45.26 7.44L45.26 7.44Q44.63 7.66 44.20 8.02L44.20 8.02L43.64 7.01L43.64 7.01Q44.21 6.55 45.01 6.31L45.01 6.31L45.01 6.31Q45.81 6.06 46.70 6.06L46.70 6.06ZM46.40 12.60L46.40 12.60Q47.17 12.60 47.73 12.26L47.73 12.26L47.73 12.26Q48.29 11.91 48.54 11.28L48.54 11.28L48.54 10.25L46.47 10.25L46.47 10.25Q44.76 10.25 44.76 11.40L44.76 11.40L44.76 11.40Q44.76 11.96 45.19 12.28L45.19 12.28L45.19 12.28Q45.63 12.60 46.40 12.60L46.40 12.60ZM61.66 6.06L61.66 6.06Q63.06 6.06 63.87 6.87L63.87 6.87L63.87 6.87Q64.69 7.69 64.69 9.28L64.69 9.28L64.69 13.55L63.35 13.55L63.35 9.44L63.35 9.44Q63.35 8.36 62.85 7.81L62.85 7.81L62.85 7.81Q62.36 7.27 61.43 7.27L61.43 7.27L61.43 7.27Q60.41 7.27 59.81 7.90L59.81 7.90L59.81 7.90Q59.21 8.54 59.21 9.73L59.21 9.73L59.21 13.55L57.86 13.55L57.86 9.44L57.86 9.44Q57.86 8.36 57.36 7.81L57.36 7.81L57.36 7.81Q56.87 7.27 55.94 7.27L55.94 7.27L55.94 7.27Q54.92 7.27 54.32 7.90L54.32 7.90L54.32 7.90Q53.72 8.54 53.72 9.73L53.72 9.73L53.72 13.55L52.37 13.55L52.37 6.13L53.66 6.13L53.66 7.24L53.66 7.24Q54.07 6.66 54.73 6.36L54.73 6.36L54.73 6.36Q55.38 6.06 56.22 6.06L56.22 6.06L56.22 6.06Q57.09 6.06 57.76 6.41L57.76 6.41L57.76 6.41Q58.44 6.76 58.80 7.43L58.80 7.43L58.80 7.43Q59.22 6.79 59.97 6.43L59.97 6.43L59.97 6.43Q60.72 6.06 61.66 6.06L61.66 6.06Z"></path></g><!----><g data-v-423bf9ae="" id="1af05dbb-3bdb-4def-960b-30cca4ebeeaa" transform="matrix(2.8125,0,0,2.8125,141,0)" stroke="none" fill="black"><path d="M29.625 1l-3.099 3.172H4.054v23.657h22.472L29.625 31H1V1h28.625M32 0H0v32h32l-5.054-5.172H5.054V5.172h21.893L32 0z"></path><path d="M21.038 10.962v10.076H10.962V10.962h10.076m1-1H9.962v12.076h12.076V9.962z"></path></g><!----></svg>