<?xml version="1.0" standalone="no"?>
<!DOCTYPE svg PUBLIC "-//W3C//DTD SVG 20010904//EN"
 "http://www.w3.org/TR/2001/REC-SVG-20010904/DTD/svg10.dtd">
<svg version="1.0" xmlns="http://www.w3.org/2000/svg"
 width="541.000000pt" height="391.000000pt" viewBox="0 0 541.000000 391.000000"
 preserveAspectRatio="xMidYMid meet">

<g transform="translate(0.000000,391.000000) scale(0.100000,-0.100000)"
fill="#000000" stroke="none">
<path d="M1380 1930 l0 -1400 1395 0 c767 0 1395 3 1395 7 0 3 -98 104 -217
225 l-217 218 -958 0 -958 0 0 950 0 950 958 0 957 0 165 168 c91 92 190 193
220 225 l54 57 -1397 0 -1397 0 0 -1400z m2571 1293 c-11 -16 -71 -79 -133
-140 l-113 -113 -985 -2 -985 -3 0 -1020 c0 -561 4 -1029 8 -1039 7 -19 28
-19 982 -12 l975 6 133 -136 c72 -74 134 -140 135 -145 2 -5 -491 -8 -1250 -7
l-1253 3 -3 1318 -2 1317 1256 0 1255 0 -20 -27z"/>
<path d="M2252 1933 l3 -528 528 -3 527 -2 0 530 0 530 -530 0 -530 0 2 -527z
m970 5 c2 -238 2 -436 0 -440 -2 -5 -201 -8 -443 -8 l-439 0 0 440 0 440 440
0 439 0 3 -432z"/>
</g>
</svg>
